<svg width="256" height="256" viewBox="0 0 256 256" fill="none" xmlns="http://www.w3.org/2000/svg">
<rect width="256" height="256" fill="white"/>
<rect width="256" height="256" fill="url(#paint0_linear)"/>
<rect opacity="0.9" x="14" y="14" width="227" height="227" rx="10" fill="white"/>
<g filter="url(#filter0_d)">
<path d="M40.156 167.336C38.9827 167.336 38.0733 167.013 37.428 166.368C36.812 165.693 36.504 164.887 36.504 163.948C36.504 163.713 36.5333 163.435 36.592 163.112C36.68 162.789 36.7827 162.511 36.9 162.276C37.2813 162.452 37.8387 162.584 38.572 162.672C39.3347 162.731 40.2147 162.76 41.212 162.76C42.708 162.76 44.3947 162.701 46.272 162.584C48.1787 162.437 49.9973 162.291 51.728 162.144C53.4587 161.997 54.984 161.865 56.304 161.748C57.624 161.601 58.4747 161.528 58.856 161.528C59.9413 161.528 60.7187 161.939 61.188 162.76C61.6867 163.552 62.0533 164.623 62.288 165.972C61.5253 165.913 60.7627 165.869 60 165.84C59.2667 165.781 58.636 165.752 58.108 165.752C57.1693 165.752 56.216 165.781 55.248 165.84C54.3093 165.899 53.356 165.987 52.388 166.104C51.9773 166.955 51.5227 167.967 51.024 169.14C50.5253 170.284 50.0267 171.487 49.528 172.748C49.0587 174.009 48.604 175.271 48.164 176.532C47.724 177.764 47.3427 178.879 47.02 179.876C46.3747 181.812 45.8027 183.601 45.304 185.244C44.8347 186.887 44.4093 188.427 44.028 189.864C43.676 191.272 43.368 192.621 43.104 193.912C42.84 195.203 42.6053 196.464 42.4 197.696C40.4347 197.403 38.792 196.171 37.472 194C37.7067 193.091 37.9853 192.108 38.308 191.052C38.66 189.967 39.056 188.749 39.496 187.4C39.9653 186.021 40.508 184.467 41.124 182.736C41.74 181.005 42.444 179.04 43.236 176.84C43.5293 176.019 43.8373 175.168 44.16 174.288C44.4827 173.379 44.7907 172.484 45.084 171.604C45.4067 170.724 45.6853 169.873 45.92 169.052C46.184 168.231 46.404 167.483 46.58 166.808C45.348 166.955 44.1747 167.087 43.06 167.204C41.9747 167.292 41.0067 167.336 40.156 167.336ZM56.4467 193.252C56.4467 192.225 56.5493 191.023 56.7547 189.644C56.96 188.236 57.2533 186.74 57.6347 185.156C58.0453 183.572 58.5147 181.915 59.0427 180.184C59.6 178.453 60.216 176.723 60.8907 174.992C61.4773 173.437 62.152 171.868 62.9147 170.284C63.7067 168.7 64.5573 167.145 65.4667 165.62C66.376 164.095 67.3147 162.643 68.2827 161.264C69.28 159.885 70.2773 158.624 71.2747 157.48C71.744 157.48 72.2427 157.539 72.7707 157.656C73.328 157.773 73.856 157.935 74.3547 158.14C74.8827 158.316 75.352 158.536 75.7627 158.8C76.2027 159.064 76.5547 159.328 76.8187 159.592C74.6187 161.851 72.6387 164.139 70.8787 166.456C69.1187 168.744 67.7253 170.9 66.6987 172.924C66.1413 174.039 65.628 175.08 65.1587 176.048C64.7187 177.016 64.308 177.984 63.9267 178.952C63.5453 179.891 63.1933 180.844 62.8707 181.812C62.5773 182.751 62.2987 183.748 62.0347 184.804C67.6667 177.617 71.8467 174.024 74.5747 174.024C75.3373 174.024 76.1587 174.273 77.0387 174.772C77.9187 175.271 78.696 175.945 79.3707 176.796C78.4613 177.793 77.5227 178.996 76.5547 180.404C75.5867 181.812 74.692 183.235 73.8707 184.672C73.0787 186.08 72.4187 187.4 71.8907 188.632C71.392 189.835 71.1427 190.729 71.1427 191.316C71.1427 191.609 71.1867 191.815 71.2747 191.932C71.3627 192.02 71.5533 192.064 71.8467 192.064C72.2867 192.064 72.6387 192.005 72.9027 191.888C73.1667 191.771 73.328 191.712 73.3867 191.712C73.5333 191.947 73.6213 192.108 73.6507 192.196C73.68 192.284 73.6947 192.357 73.6947 192.416C73.6947 192.533 73.5187 192.709 73.1667 192.944C72.8147 193.149 72.3893 193.369 71.8907 193.604C71.4213 193.809 70.952 194 70.4827 194.176C70.0133 194.352 69.6613 194.44 69.4267 194.44C69.1333 194.44 68.84 194.352 68.5467 194.176C68.2533 194.029 67.9893 193.824 67.7547 193.56C67.5493 193.296 67.3733 193.003 67.2267 192.68C67.1093 192.357 67.0507 192.02 67.0507 191.668C67.0507 191.228 67.168 190.583 67.4027 189.732C67.6667 188.852 68.0187 187.84 68.4587 186.696C68.8987 185.523 69.4267 184.247 70.0427 182.868C70.6587 181.489 71.3187 180.081 72.0227 178.644C72.0227 178.527 71.964 178.468 71.8467 178.468C71.7587 178.468 71.524 178.585 71.1427 178.82C70.7907 179.055 70.4533 179.289 70.1307 179.524C69.0747 180.316 68.004 181.299 66.9187 182.472C65.8627 183.616 64.8213 184.877 63.7947 186.256C62.7973 187.635 61.844 189.101 60.9347 190.656C60.0547 192.181 59.292 193.721 58.6467 195.276C58.5587 195.481 58.4267 195.672 58.2507 195.848C58.0747 196.024 57.928 196.112 57.8107 196.112C57.7227 196.112 57.5907 196.009 57.4147 195.804C57.268 195.599 57.1213 195.335 56.9747 195.012C56.8573 194.719 56.74 194.411 56.6227 194.088C56.5053 193.765 56.4467 193.487 56.4467 193.252ZM94.9731 175.784C94.8558 177.603 94.5331 179.172 94.0051 180.492C93.4771 181.783 92.7145 182.927 91.7171 183.924C90.7491 184.892 89.5611 185.772 88.1531 186.564C86.7451 187.356 85.1025 188.119 83.2251 188.852C83.2251 189.028 83.2105 189.219 83.1811 189.424C83.1811 189.6 83.1811 189.791 83.1811 189.996C83.1811 190.377 83.2105 190.773 83.2691 191.184C83.3278 191.595 83.4305 191.976 83.5771 192.328C83.7238 192.68 83.9291 192.973 84.1931 193.208C84.4571 193.413 84.7945 193.516 85.2051 193.516C85.9971 193.516 86.7745 193.34 87.5371 192.988C88.2998 192.636 89.0185 192.211 89.6931 191.712C90.3971 191.184 91.0425 190.627 91.6291 190.04C92.2451 189.424 92.7878 188.867 93.2571 188.368C93.5505 188.632 93.7998 188.881 94.0051 189.116C92.6851 190.876 91.2331 192.343 89.6491 193.516C88.0945 194.66 86.6131 195.393 85.2051 195.716C83.1811 195.481 81.5971 194.748 80.4531 193.516C79.3385 192.255 78.7811 190.744 78.7811 188.984C78.7811 187.781 78.9425 186.564 79.2651 185.332C79.6171 184.071 80.0865 182.868 80.6731 181.724C81.2891 180.551 81.9931 179.451 82.7851 178.424C83.6065 177.397 84.4718 176.503 85.3811 175.74C86.3198 174.977 87.2731 174.376 88.2411 173.936C89.2385 173.496 90.2211 173.276 91.1891 173.276C92.5385 173.452 93.7998 174.288 94.9731 175.784ZM91.9371 177.236C91.1451 177.353 90.3238 177.676 89.4731 178.204C88.6225 178.732 87.8158 179.436 87.0531 180.316C86.3198 181.196 85.6451 182.223 85.0291 183.396C84.4131 184.569 83.9291 185.831 83.5771 187.18C85.9238 186.007 87.8745 184.569 89.4291 182.868C90.9838 181.137 91.8198 179.26 91.9371 177.236ZM122.442 180.492C121.973 180.521 121.401 180.829 120.726 181.416C120.052 181.973 119.318 182.707 118.526 183.616C117.764 184.496 116.957 185.479 116.106 186.564C115.285 187.649 114.478 188.735 113.686 189.82C112.924 190.876 112.205 191.873 111.53 192.812C110.856 193.751 110.284 194.499 109.814 195.056C109.169 194.792 108.612 194.411 108.142 193.912C107.673 193.384 107.336 192.739 107.13 191.976C107.277 191.067 107.482 190.128 107.746 189.16C108.01 188.163 108.348 187.136 108.758 186.08C109.198 185.024 109.726 183.924 110.342 182.78C110.988 181.607 111.765 180.375 112.674 179.084C112.234 179.113 111.633 179.436 110.87 180.052C110.108 180.639 109.286 181.416 108.406 182.384C107.526 183.323 106.617 184.393 105.678 185.596C104.74 186.769 103.86 187.928 103.038 189.072C101.953 190.597 101.044 191.932 100.31 193.076C99.6062 194.22 99.0929 194.895 98.7702 195.1C98.0075 194.543 97.4795 193.941 97.1862 193.296C96.8929 192.651 96.6729 191.932 96.5262 191.14C96.5555 190.436 96.6582 189.556 96.8342 188.5C97.0395 187.444 97.3182 186.359 97.6702 185.244C98.3449 183.103 99.2102 180.976 100.266 178.864C101.352 176.752 102.393 174.816 103.39 173.056C104.212 173.232 104.945 173.511 105.59 173.892C106.265 174.273 106.969 174.831 107.702 175.564C107.409 176.473 106.954 177.441 106.338 178.468C105.722 179.465 105.077 180.521 104.402 181.636C103.728 182.751 103.112 183.895 102.554 185.068C101.997 186.241 101.63 187.429 101.454 188.632C102.276 187.459 103.244 186.109 104.358 184.584C105.502 183.059 106.661 181.621 107.834 180.272C109.037 178.923 110.225 177.779 111.398 176.84C112.572 175.901 113.628 175.432 114.566 175.432C114.918 175.432 115.3 175.491 115.71 175.608C116.121 175.725 116.502 175.872 116.854 176.048C117.206 176.224 117.5 176.4 117.734 176.576C117.969 176.723 118.101 176.84 118.13 176.928C117.984 177.515 117.632 178.321 117.074 179.348C116.546 180.345 115.974 181.401 115.358 182.516C114.742 183.631 114.17 184.716 113.642 185.772C113.114 186.799 112.806 187.62 112.718 188.236C114.156 186.271 115.505 184.496 116.766 182.912C118.028 181.299 119.216 179.92 120.33 178.776C121.445 177.632 122.472 176.752 123.41 176.136C124.378 175.52 125.288 175.212 126.138 175.212C126.725 175.212 127.268 175.373 127.766 175.696C128.294 175.989 128.661 176.429 128.866 177.016C128.602 177.896 128.162 178.952 127.546 180.184C126.96 181.416 126.358 182.721 125.742 184.1C125.126 185.449 124.569 186.784 124.07 188.104C123.601 189.424 123.366 190.612 123.366 191.668C123.366 192.284 123.454 192.695 123.63 192.9C123.806 193.076 124.056 193.164 124.378 193.164C124.73 193.164 125.053 193.105 125.346 192.988C125.669 192.841 125.904 192.768 126.05 192.768C126.226 192.885 126.329 193.032 126.358 193.208C126.388 193.384 126.402 193.545 126.402 193.692C125.816 194.161 125.214 194.543 124.598 194.836C123.982 195.159 123.293 195.32 122.53 195.32C121.826 195.32 121.24 195.203 120.77 194.968C120.33 194.733 119.964 194.411 119.67 194C119.377 193.589 119.172 193.12 119.054 192.592C118.937 192.064 118.878 191.492 118.878 190.876C118.878 189.879 119.01 188.896 119.274 187.928C119.538 186.931 119.846 185.992 120.198 185.112C120.58 184.203 120.976 183.367 121.386 182.604C121.797 181.812 122.149 181.108 122.442 180.492ZM146.407 175.784C146.289 177.603 145.967 179.172 145.439 180.492C144.911 181.783 144.148 182.927 143.151 183.924C142.183 184.892 140.995 185.772 139.587 186.564C138.179 187.356 136.536 188.119 134.659 188.852C134.659 189.028 134.644 189.219 134.615 189.424C134.615 189.6 134.615 189.791 134.615 189.996C134.615 190.377 134.644 190.773 134.703 191.184C134.761 191.595 134.864 191.976 135.011 192.328C135.157 192.68 135.363 192.973 135.627 193.208C135.891 193.413 136.228 193.516 136.639 193.516C137.431 193.516 138.208 193.34 138.971 192.988C139.733 192.636 140.452 192.211 141.127 191.712C141.831 191.184 142.476 190.627 143.063 190.04C143.679 189.424 144.221 188.867 144.691 188.368C144.984 188.632 145.233 188.881 145.439 189.116C144.119 190.876 142.667 192.343 141.083 193.516C139.528 194.66 138.047 195.393 136.639 195.716C134.615 195.481 133.031 194.748 131.887 193.516C130.772 192.255 130.215 190.744 130.215 188.984C130.215 187.781 130.376 186.564 130.699 185.332C131.051 184.071 131.52 182.868 132.107 181.724C132.723 180.551 133.427 179.451 134.219 178.424C135.04 177.397 135.905 176.503 136.815 175.74C137.753 174.977 138.707 174.376 139.675 173.936C140.672 173.496 141.655 173.276 142.623 173.276C143.972 173.452 145.233 174.288 146.407 175.784ZM143.371 177.236C142.579 177.353 141.757 177.676 140.907 178.204C140.056 178.732 139.249 179.436 138.487 180.316C137.753 181.196 137.079 182.223 136.463 183.396C135.847 184.569 135.363 185.831 135.011 187.18C137.357 186.007 139.308 184.569 140.863 182.868C142.417 181.137 143.253 179.26 143.371 177.236ZM176.607 170.284C176.607 171.897 176.197 173.437 175.375 174.904C174.583 176.371 173.498 177.661 172.119 178.776C170.77 179.861 169.171 180.727 167.323 181.372C165.505 182.017 163.569 182.34 161.515 182.34C160.782 182.34 160.195 182.252 159.755 182.076C159.345 181.871 158.875 181.489 158.347 180.932C156.881 184.129 155.678 187.077 154.739 189.776C153.83 192.445 153.111 195.041 152.583 197.564C151.469 197.3 150.559 196.831 149.855 196.156C149.151 195.511 148.506 194.689 147.919 193.692C148.213 193.135 148.565 192.401 148.975 191.492C149.386 190.583 149.885 189.468 150.471 188.148C151.058 186.799 151.733 185.2 152.495 183.352C153.287 181.475 154.211 179.289 155.267 176.796C155.737 175.652 156.147 174.655 156.499 173.804C156.851 172.953 157.159 172.161 157.423 171.428C157.687 170.665 157.922 169.917 158.127 169.184C158.362 168.451 158.597 167.644 158.831 166.764C157.453 167.204 156.177 167.717 155.003 168.304C153.859 168.891 152.906 169.507 152.143 170.152C151.879 169.976 151.601 169.712 151.307 169.36C151.043 169.008 150.794 168.627 150.559 168.216C150.325 167.776 150.119 167.336 149.943 166.896C149.767 166.456 149.665 166.06 149.635 165.708C150.486 165.121 151.542 164.579 152.803 164.08C154.065 163.581 155.414 163.156 156.851 162.804C158.289 162.423 159.77 162.129 161.295 161.924C162.85 161.719 164.331 161.616 165.739 161.616C167.411 161.616 168.922 161.836 170.271 162.276C171.621 162.687 172.765 163.273 173.703 164.036C174.642 164.799 175.361 165.708 175.859 166.764C176.358 167.82 176.607 168.993 176.607 170.284ZM168.775 165.004C167.661 165.004 166.517 165.092 165.343 165.268L165.871 166.06C165.578 166.441 165.211 167.013 164.771 167.776C164.331 168.539 163.847 169.463 163.319 170.548C162.791 171.604 162.205 172.792 161.559 174.112C160.943 175.432 160.283 176.825 159.579 178.292C161.867 178.292 163.95 178.087 165.827 177.676C167.705 177.236 169.303 176.649 170.623 175.916C171.973 175.153 173.014 174.273 173.747 173.276C174.51 172.279 174.891 171.208 174.891 170.064C174.891 168.539 174.378 167.321 173.351 166.412C172.325 165.473 170.799 165.004 168.775 165.004ZM188.803 176.224C189.097 176.224 189.434 176.283 189.815 176.4C190.226 176.488 190.593 176.62 190.915 176.796C191.238 176.943 191.502 177.104 191.707 177.28C191.942 177.456 192.059 177.617 192.059 177.764C191.473 178.996 190.93 180.243 190.431 181.504C189.933 182.736 189.507 183.924 189.155 185.068C188.803 186.212 188.525 187.283 188.319 188.28C188.143 189.277 188.055 190.143 188.055 190.876C188.055 191.697 188.143 192.387 188.319 192.944C188.495 193.472 188.789 193.853 189.199 194.088C188.847 194.323 188.393 194.513 187.835 194.66C187.278 194.807 186.779 194.88 186.339 194.88C184.755 194.88 183.963 193.795 183.963 191.624C183.963 189.952 184.521 187.664 185.635 184.76C185.049 186.109 184.374 187.385 183.611 188.588C182.849 189.761 182.071 190.803 181.279 191.712C180.487 192.621 179.681 193.369 178.859 193.956C178.067 194.513 177.334 194.851 176.659 194.968C175.574 194.909 174.694 194.396 174.019 193.428C173.345 192.431 173.007 191.169 173.007 189.644C173.007 188.001 173.359 186.271 174.063 184.452C174.767 182.633 175.662 180.947 176.747 179.392C177.862 177.837 179.065 176.547 180.355 175.52C181.646 174.464 182.893 173.907 184.095 173.848C184.389 173.936 184.711 174.112 185.063 174.376C185.445 174.64 185.797 174.948 186.119 175.3C186.471 175.652 186.765 176.019 186.999 176.4C187.234 176.752 187.366 177.06 187.395 177.324C186.222 177.5 185.005 178.072 183.743 179.04C182.511 180.008 181.382 181.181 180.355 182.56C179.358 183.909 178.537 185.361 177.891 186.916C177.246 188.471 176.923 189.923 176.923 191.272C176.923 191.829 177.129 192.181 177.539 192.328C178.39 192.152 179.373 191.433 180.487 190.172C181.602 188.881 182.951 186.901 184.535 184.232C184.829 183.704 185.151 183.117 185.503 182.472C185.885 181.827 186.266 181.152 186.647 180.448C187.029 179.744 187.395 179.04 187.747 178.336C188.129 177.603 188.481 176.899 188.803 176.224ZM194.387 192.196C194.387 191.609 194.445 190.788 194.563 189.732C194.709 188.676 194.885 187.532 195.091 186.3C195.325 185.068 195.575 183.807 195.839 182.516C196.132 181.225 196.425 180.067 196.719 179.04C197.1 177.661 197.687 176.605 198.479 175.872C199.3 175.109 200.312 174.728 201.515 174.728C202.16 174.728 202.791 174.831 203.407 175.036C204.052 175.241 204.433 175.505 204.551 175.828C203.7 176.532 203.011 177.412 202.483 178.468C201.984 179.495 201.573 180.609 201.251 181.812C200.957 182.985 200.723 184.203 200.547 185.464C200.4 186.696 200.239 187.855 200.063 188.94C201.031 187.649 201.94 186.491 202.791 185.464C203.671 184.408 204.448 183.572 205.123 182.956C206.032 182.105 206.648 181.401 206.971 180.844C207.293 180.257 207.572 179.627 207.807 178.952C207.983 178.424 208.188 177.808 208.423 177.104C208.687 176.4 209.112 175.755 209.699 175.168C209.816 175.139 210.065 175.124 210.447 175.124C210.74 175.124 211.048 175.139 211.371 175.168C211.723 175.197 212.045 175.256 212.339 175.344C212.632 175.432 212.881 175.535 213.087 175.652C213.292 175.769 213.409 175.916 213.439 176.092C212.969 176.708 212.529 177.676 212.119 178.996C211.708 180.287 211.341 181.709 211.019 183.264C210.696 184.819 210.403 186.373 210.139 187.928C209.875 189.453 209.64 190.744 209.435 191.8C209.552 191.741 209.816 191.507 210.227 191.096C210.637 190.685 211.092 190.172 211.591 189.556C212.119 188.94 212.661 188.265 213.219 187.532C213.805 186.799 214.319 186.08 214.759 185.376C215.316 184.525 215.771 183.733 216.123 183C216.504 182.237 216.827 181.431 217.091 180.58C217.384 179.729 217.648 178.791 217.883 177.764C218.117 176.708 218.367 175.461 218.631 174.024C218.807 173.789 219.188 173.599 219.775 173.452C220.391 173.276 220.948 173.188 221.447 173.188C221.887 173.188 222.209 173.261 222.415 173.408C222.268 175.051 221.989 176.517 221.579 177.808C221.197 179.099 220.669 180.36 219.995 181.592C219.32 182.795 218.484 184.012 217.487 185.244C216.489 186.447 215.316 187.767 213.967 189.204C213.409 189.791 212.793 190.436 212.119 191.14C211.473 191.844 210.828 192.504 210.183 193.12C209.567 193.707 208.98 194.205 208.423 194.616C207.895 195.027 207.484 195.232 207.191 195.232C206.516 195.232 205.959 194.968 205.519 194.44C205.079 193.912 204.859 193.237 204.859 192.416C204.859 191.565 204.888 190.832 204.947 190.216C205.035 189.571 205.167 188.896 205.343 188.192C205.519 187.547 205.651 187.004 205.739 186.564C205.856 186.124 205.944 185.743 206.003 185.42C206.091 185.097 206.149 184.819 206.179 184.584C206.208 184.349 206.237 184.115 206.267 183.88C206.032 183.997 205.724 184.247 205.343 184.628C204.961 184.98 204.565 185.405 204.155 185.904C203.744 186.373 203.333 186.857 202.923 187.356C202.512 187.855 202.175 188.28 201.911 188.632C201.353 189.395 200.869 190.069 200.459 190.656C200.048 191.243 199.652 191.8 199.271 192.328C198.919 192.856 198.567 193.399 198.215 193.956C197.863 194.484 197.452 195.056 196.983 195.672C196.044 195.379 195.369 194.939 194.959 194.352C194.577 193.765 194.387 193.047 194.387 192.196Z" fill="#161616"/>
</g>
<g filter="url(#filter1_d)">
<path d="M116.479 93.9921C122.23 93.9921 126.908 87.7147 126.908 79.9967C126.908 72.2792 122.23 66 116.479 66C110.73 66 106.052 72.279 106.052 79.9967C106.052 87.7147 110.73 93.9921 116.479 93.9921Z" fill="#1E1E1E"/>
<path d="M147.411 107.606C147.197 107.315 146.992 107.04 146.883 106.804C144.551 101.813 138.159 95.928 127.803 95.7817L127.405 95.7795C117.208 95.7795 110.864 101.352 108.326 106.57C108.238 106.749 108.045 106.98 107.841 107.225C107.599 107.512 107.36 107.806 107.155 108.125C105.011 111.461 103.918 115.216 104.079 118.699C104.248 122.397 105.796 125.368 108.431 127.062C109.495 127.746 110.644 128.09 111.849 128.09C114.334 128.09 116.609 126.691 119.246 125.07C120.922 124.036 122.654 122.97 124.577 122.173C124.792 122.102 125.676 121.993 127.12 121.993C128.838 121.993 130.071 122.146 130.335 122.237C132.212 123.066 133.861 124.153 135.456 125.202C137.901 126.814 140.209 128.334 142.714 128.334C143.788 128.334 144.83 128.05 145.813 127.492C151.236 124.411 152.269 115.959 148.117 108.651C147.909 108.285 147.661 107.942 147.411 107.606Z" fill="#1E1E1E"/>
<path d="M138.654 93.9921C144.403 93.9921 149.081 87.7147 149.081 79.9967C149.081 72.2792 144.403 66 138.654 66C132.903 66 128.225 72.279 128.225 79.9967C128.225 87.7147 132.903 93.9921 138.654 93.9921Z" fill="#1E1E1E"/>
<path d="M155.781 86.8054C151.171 86.8054 147.564 91.5855 147.564 97.6879C147.564 103.788 151.174 108.568 155.781 108.568C160.387 108.568 163.999 103.788 163.999 97.6879C163.999 91.5857 160.389 86.8054 155.781 86.8054Z" fill="#1E1E1E"/>
<path d="M108.434 97.6879C108.434 91.5857 104.825 86.8054 100.217 86.8054C95.61 86.8054 92 91.5857 92 97.6879C92 103.788 95.61 108.568 100.217 108.568C104.825 108.568 108.434 103.788 108.434 97.6879Z" fill="#1E1E1E"/>
</g>
<defs>
<filter id="filter0_d" x="32.504" y="157.48" width="193.911" height="48.216" filterUnits="userSpaceOnUse" color-interpolation-filters="sRGB">
<feFlood flood-opacity="0" result="BackgroundImageFix"/>
<feColorMatrix in="SourceAlpha" type="matrix" values="0 0 0 0 0 0 0 0 0 0 0 0 0 0 0 0 0 0 127 0"/>
<feOffset dy="4"/>
<feGaussianBlur stdDeviation="2"/>
<feColorMatrix type="matrix" values="0 0 0 0 0 0 0 0 0 0 0 0 0 0 0 0 0 0 0.25 0"/>
<feBlend mode="normal" in2="BackgroundImageFix" result="effect1_dropShadow"/>
<feBlend mode="normal" in="SourceGraphic" in2="effect1_dropShadow" result="shape"/>
</filter>
<filter id="filter1_d" x="88" y="66" width="79.999" height="70.3341" filterUnits="userSpaceOnUse" color-interpolation-filters="sRGB">
<feFlood flood-opacity="0" result="BackgroundImageFix"/>
<feColorMatrix in="SourceAlpha" type="matrix" values="0 0 0 0 0 0 0 0 0 0 0 0 0 0 0 0 0 0 127 0"/>
<feOffset dy="4"/>
<feGaussianBlur stdDeviation="2"/>
<feColorMatrix type="matrix" values="0 0 0 0 0 0 0 0 0 0 0 0 0 0 0 0 0 0 0.25 0"/>
<feBlend mode="normal" in2="BackgroundImageFix" result="effect1_dropShadow"/>
<feBlend mode="normal" in="SourceGraphic" in2="effect1_dropShadow" result="shape"/>
</filter>
<linearGradient id="paint0_linear" x1="1.46525e-06" y1="6.9818" x2="275.76" y2="36.5982" gradientUnits="userSpaceOnUse">
<stop stop-color="#702EC5"/>
<stop offset="0.198136" stop-color="#702EC5"/>
<stop offset="0.630314" stop-color="#C554CF"/>
<stop offset="1" stop-color="#F6AAA1"/>
</linearGradient>
</defs>
</svg>
